<?xml version="1.0" encoding="UTF-8" standalone="no"?>
<!-- Created with Inkscape (http://www.inkscape.org/) -->

<svg
   xmlns:dc="http://purl.org/dc/elements/1.1/"
   xmlns:cc="http://creativecommons.org/ns#"
   xmlns:rdf="http://www.w3.org/1999/02/22-rdf-syntax-ns#"
   xmlns:svg="http://www.w3.org/2000/svg"
   xmlns="http://www.w3.org/2000/svg"
   xmlns:sodipodi="http://sodipodi.sourceforge.net/DTD/sodipodi-0.dtd"
   xmlns:inkscape="http://www.inkscape.org/namespaces/inkscape"
   width="103.62765mm"
   height="30.910496mm"
   viewBox="0 0 103.62765 30.910496"
   version="1.1"
   id="svg7171"
   inkscape:version="0.92.3 (2405546, 2018-03-11)"
   sodipodi:docname="logo.svg">
  <defs
     id="defs7165">
    <marker
       inkscape:stockid="TriangleOutS"
       orient="auto"
       refY="0"
       refX="0"
       id="TriangleOutS-27-3"
       style="overflow:visible"
       inkscape:isstock="true">
      <path
         inkscape:connector-curvature="0"
         id="path4539-09-6"
         d="M 5.77,0 -2.88,5 V -5 Z"
         style="fill:#006e0c;fill-opacity:1;fill-rule:evenodd;stroke:#006e0c;stroke-width:1.00000003pt;stroke-opacity:1"
         transform="scale(0.2)" />
    </marker>
  </defs>
  <sodipodi:namedview
     id="base"
     pagecolor="#ffffff"
     bordercolor="#666666"
     borderopacity="1.0"
     inkscape:pageopacity="0.0"
     inkscape:pageshadow="2"
     inkscape:zoom="2.2484206"
     inkscape:cx="115.43758"
     inkscape:cy="12.310766"
     inkscape:document-units="mm"
     inkscape:current-layer="layer1"
     showgrid="false"
     inkscape:window-width="1920"
     inkscape:window-height="1016"
     inkscape:window-x="0"
     inkscape:window-y="375"
     inkscape:window-maximized="1"
     fit-margin-top="0"
     fit-margin-left="0"
     fit-margin-right="0"
     fit-margin-bottom="0"
     units="mm" />
  <metadata
     id="metadata7168">
    <rdf:RDF>
      <cc:Work
         rdf:about="">
        <dc:format>image/svg+xml</dc:format>
        <dc:type
           rdf:resource="http://purl.org/dc/dcmitype/StillImage" />
        <dc:title />
      </cc:Work>
    </rdf:RDF>
  </metadata>
  <g
     inkscape:label="Layer 1"
     inkscape:groupmode="layer"
     id="layer1"
     transform="translate(4.766786,-31.016431)">
    <path
       style="fill:#3aa21d;fill-opacity:1;fill-rule:evenodd;stroke:none;stroke-width:0.28222224px;stroke-linecap:butt;stroke-linejoin:miter;stroke-opacity:1"
       d="m 21.829416,31.485777 c -9.605532,-0.0035 -26.57422,1.488501 -26.596202,16.307419 0.00773,5.76585 4.52613256,14.11799 12.870124,14.02763 9.001264,0.125129 12.576414,-3.043429 12.57924,-12.109047 h 2.889791 l -5.732186,-4.506178 -10.219552,4.506178 6.205358,0.01261 C 13.765979,55.391182 12.78561,56.535361 8.2855203,56.866172 5.5492581,57.146939 1.1227323,54.414659 0.77964833,48.910971 0.79793833,37.793447 12.158222,38.600975 20.673271,36.903033 22.933267,35.501989 23.946083,34.3392 23.946083,31.485778 Z"
       id="path4140"
       inkscape:connector-curvature="0"
       sodipodi:nodetypes="ccccccccccccc" />
    <ellipse
       style="fill:#112031;fill-opacity:1;stroke:none;stroke-width:0.13475409;stroke-miterlimit:4;stroke-dasharray:none;stroke-opacity:1"
       id="path4138"
       cx="27.872353"
       cy="33.948956"
       rx="3.0535314"
       ry="2.9325249" />
    <path
       style="fill:#112031;fill-opacity:1;fill-rule:evenodd;stroke:none;stroke-width:0.28222224px;stroke-linecap:butt;stroke-linejoin:miter;stroke-opacity:1"
       d="m 30.287767,37.754545 -0.02944,20.669586 c -1.3272,2.671213 -3.033606,3.319992 -4.827383,3.502795 L 25.283769,41.139603 c 0.904425,-2.342103 2.686679,-3.397775 5.003998,-3.385058 z"
       id="path4139"
       inkscape:connector-curvature="0"
       sodipodi:nodetypes="ccccc" />
    <path
       style="fill:#b94144;fill-opacity:1;fill-rule:evenodd;stroke:none;stroke-width:0.28222224px;stroke-linecap:butt;stroke-linejoin:miter;stroke-opacity:1"
       d="m 33.189257,61.859942 c -0.222883,-8.578791 -1.021152,-22.28615 6.564545,-24.526114 5.64026,-1.816083 4.745892,17.473854 7.579683,15.552957 3.490002,-2.146433 0.965298,-12.696208 -0.271063,-16.910497 l -3.116879,0.721696 -0.892972,-3.186557 10.577203,-2.126917 0.836748,3.097367 -3.188716,0.624416 c 3.326812,10.179841 3.403116,26.185718 -5.538018,22.944408 -5.589212,-2.524739 -4.650049,-13.94808 -5.742159,-14.038442 -2.079527,0.06468 -2.127068,7.9955 -2.381795,14.144688 -0.939369,2.039758 -2.497492,3.394094 -4.426577,3.702995 z"
       id="path4177"
       inkscape:connector-curvature="0"
       sodipodi:nodetypes="ccccccccccccc" />
    <path
       id="path4138-7-4-5"
       style="font-style:normal;font-weight:normal;line-height:0%;font-family:sans-serif;letter-spacing:0px;word-spacing:0px;fill:#9e9e9e;fill-opacity:1;stroke:none;stroke-width:0.0878763;stroke-linecap:butt;stroke-linejoin:miter;stroke-miterlimit:4;stroke-dasharray:none;stroke-opacity:1"
       d="m 72.655147,46.413617 c 0,0.799186 -0.6704,1.447055 -1.49738,1.447055 -0.82698,3e-6 -1.49738,-0.647866 -1.49738,-1.447058 0,-0.799185 0.6704,-1.44706 1.49738,-1.44706 0.82698,5e-6 1.49738,0.647872 1.49738,1.447063 m -1.20808,15.170071 5.37422,-16.437237 h 2.13321 c 0.44097,2e-6 0.7655,0.110241 0.97359,0.330727 0.21036,0.209463 0.26115,0.55122 0.15236,1.025266 l -0.44076,1.736324 c 1.02565,-1.124478 2.0572,-1.95681 3.09464,-2.497003 1.03972,-0.551214 2.07222,-0.826824 3.09747,-0.826824 1.09142,3e-6 1.88082,0.341754 2.36825,1.02526 0.4897,0.672485 0.6523,1.648135 0.48779,2.926955 1.09543,-1.355991 2.2107,-2.353691 3.34577,-2.993103 1.13509,-0.639408 2.29794,-0.959112 3.48856,-0.959109 0.74965,0 1.37718,0.1378 1.88258,0.41341 0.5054,0.275604 0.87993,0.677994 1.12357,1.207161 0.25467,0.529164 0.36307,1.179601 0.32519,1.951301 -0.0269,0.771703 -0.20323,1.653645 -0.52911,2.645836 l -3.37902,10.451036 h -4.13411 l 3.37901,-10.451036 c 0.34146,-1.014239 0.44514,-1.730821 0.31105,-2.14974 -0.1208,-0.429952 -0.51192,-0.644926 -1.17337,-0.644923 -0.42995,0 -0.88264,0.110242 -1.35806,0.330728 -0.46211,0.209459 -0.92265,0.51814 -1.3816,0.926044 -0.45895,0.407896 -0.90965,0.909504 -1.35213,1.504815 -0.44021,0.58429 -0.85223,1.245749 -1.23607,1.984378 l -0.003,0.01654 -2.72514,8.483197 h -4.15066 l 3.37902,-10.451038 c 0.33918,-1.003215 0.45389,-1.719794 0.34412,-2.149743 -0.10977,-0.429946 -0.49539,-0.64492 -1.15685,-0.64492 -0.46302,0 -0.93889,0.115753 -1.4276,0.347266 -0.47769,0.23151 -0.94942,0.567752 -1.41519,1.008724 -0.4635,0.429943 -0.91875,0.953601 -1.36578,1.570962 -0.44475,0.606337 -0.86132,1.289843 -1.2497,2.050522 l -2.66427,8.268227 z m 0.99678,-12.630418 -4.469439,12.630418 h -3.60495 L 68.838903,48.95327 Z m -6.331505,-0.631816 c -0.157644,0.176388 -0.305056,0.303168 -0.442237,0.380333 -0.126156,0.07717 -0.282943,0.115757 -0.470356,0.115757 -0.19844,0 -0.392157,-0.04961 -0.581159,-0.148827 -0.175702,-0.110242 -0.387713,-0.231513 -0.63604,-0.363802 -0.2373,-0.132294 -0.522108,-0.248045 -0.854422,-0.347266 -0.330044,-0.110244 -0.737597,-0.165362 -1.222666,-0.165362 -0.892971,-3e-6 -1.619507,0.181898 -2.1796,0.545702 -0.546796,0.352775 -0.874763,0.79375 -0.983891,1.322917 -0.08867,0.429948 0.0083,0.788238 0.290957,1.074871 0.284917,0.275604 0.657064,0.529159 1.116431,0.760677 0.472675,0.220486 0.983932,0.440972 1.533771,0.661458 0.549839,0.220486 1.045356,0.490581 1.48654,0.810285 0.452208,0.319705 0.800312,0.71658 1.044305,1.190625 0.243986,0.474046 0.290957,1.074871 0.140902,1.802475 -0.163695,0.793747 -0.484799,1.548911 -0.963306,2.265495 -0.476239,0.705551 -1.078735,1.328425 -1.807501,1.868614 -0.72649,0.529167 -1.563674,0.953604 -2.511552,1.273308 -0.934582,0.308681 -1.947577,0.463023 -3.03898,0.463026 -0.551217,0 -1.075661,-0.04961 -1.573342,-0.148834 -0.497682,-0.09922 -0.954331,-0.237021 -1.369955,-0.413411 -0.413342,-0.187412 -0.78242,-0.402386 -1.107231,-0.644922 -0.3248,-0.242538 -0.589946,-0.507116 -0.795417,-0.79375 l 1.332704,-1.570958 c 0.159917,-0.187415 0.33165,-0.325223 0.515205,-0.413417 0.196847,-0.09922 0.422055,-0.148828 0.675613,-0.148823 0.231508,-5e-6 0.432845,0.06614 0.603999,0.198438 0.171156,0.132283 0.366456,0.281127 0.585917,0.446481 0.230484,0.165357 0.51398,0.314193 0.850495,0.446487 0.347549,0.132292 0.813464,0.198433 1.397754,0.198433 0.463024,0 0.882288,-0.05512 1.2578,-0.165362 0.37551,-0.110242 0.703861,-0.259072 0.985049,-0.446487 0.294484,-0.198435 0.527368,-0.418923 0.698651,-0.661459 0.184584,-0.253552 0.305295,-0.518136 0.362133,-0.79375 0.07275,-0.352771 0.03492,-0.650427 -0.113496,-0.892966 -0.148421,-0.242533 -0.364299,-0.451995 -0.647626,-0.628383 -0.283326,-0.176389 -0.620813,-0.330729 -1.012454,-0.46302 -0.378341,-0.143312 -0.772084,-0.292145 -1.18123,-0.446484 -0.398116,-0.154342 -0.786178,-0.330731 -1.164175,-0.529167 -0.364701,-0.209462 -0.677351,-0.45751 -0.93794,-0.744141 -0.258323,-0.297657 -0.443507,-0.655946 -0.55554,-1.074871 -0.112048,-0.418923 -0.106685,-0.926045 0.01609,-1.521356 0.15005,-0.727605 0.438875,-1.433161 0.866465,-2.116667 0.438616,-0.683508 0.993611,-1.289843 1.664981,-1.819009 0.682389,-0.529167 1.469967,-0.953604 2.362721,-1.273308 0.90378,-0.319704 1.89035,-0.479558 2.959706,-0.479558 1.124482,0 2.080289,0.176389 2.867435,0.529167 0.787141,0.352778 1.414883,0.810285 1.883222,1.372526 z"
       inkscape:connector-curvature="0"
       sodipodi:nodetypes="cssscccsccccsccssccccccccscccccccccscccccccccccccscccscccccccscccsccccccscccscccccscccccccccsscc" />
  </g>
</svg>
